<svg width="236" height="240" viewBox="0 0 236 240" fill="none" xmlns="http://www.w3.org/2000/svg">
<path d="M4.88813 238.545C9.42823 243.465 28.1286 234.885 42.889 228.005C53.9492 222.865 98.2102 204.704 120.211 195.284C126.151 192.744 134.791 189.424 141.011 181.244C146.531 173.964 161.172 143.043 131.691 111.722C101.77 79.9215 70.9496 88.7017 59.4293 96.8618C52.6492 101.662 47.1291 112.482 44.649 117.982C34.1688 141.223 19.2284 183.804 13.1483 200.544C8.68822 212.884 0.388036 233.665 4.88813 238.545Z" fill="#002C8C"/>
<path d="M41.6884 124.982C41.9684 128.462 42.6685 134.122 45.0685 145.023C46.7086 152.503 49.3886 160.343 51.5687 165.523C58.1088 181.103 67.289 187.384 76.5892 192.424C92.3895 200.984 103.13 202.584 103.13 202.584L90.2495 207.844C90.2495 207.844 82.4493 206.224 71.8091 200.984C61.6689 195.984 51.1086 187.524 43.3885 170.963C40.0484 163.783 38.1084 156.823 36.9883 151.303C35.6083 144.463 35.3883 140.583 35.3883 140.583L41.6884 124.982Z" fill="#91CAFF"/>
<path d="M25.8681 165.543C25.8681 165.543 27.4682 178.524 38.1884 194.904C50.7487 214.065 68.289 217.205 68.289 217.205L56.6288 222.005C56.6288 222.005 43.6085 218.025 31.2282 201.124C23.5081 190.584 21.348 177.984 21.348 177.984L25.8681 165.543Z" fill="#91CAFF"/>
<path d="M14.768 196.303C14.768 196.303 17.6881 207.504 24.0882 215.864C31.7084 225.844 41.4086 228.744 41.4086 228.744L32.4684 232.704C32.4684 232.704 25.6883 231.284 18.2681 221.884C12.628 214.744 11.028 206.544 11.028 206.544L14.768 196.303Z" fill="#91CAFF"/>
<path opacity="0.44" d="M9.90754 224.745C9.50753 223.845 9.50753 222.825 9.92754 221.945L60.8686 116.302L69.2488 147.803L15.6477 225.225C14.2076 227.385 10.9676 227.105 9.90754 224.745Z" fill="#FFFDE7"/>
<path d="M73.2896 158.384C97.0902 186.224 124.191 182.744 133.211 175.704C142.251 168.644 149.391 144.383 125.691 117.003C100.85 88.3222 72.7296 96.5024 66.2295 102.703C59.7293 108.903 51.4492 132.843 73.2896 158.384Z" fill="#8F4700"/>
<path d="M155.031 169.844C146.351 162.563 141.731 163.863 135.531 166.443C127.531 169.764 114.95 172.224 97.8701 166.443L103.01 154.063C113.15 157.483 120.491 155.823 126.831 152.083C134.991 147.283 146.151 140.703 163.512 155.283C170.752 161.363 178.172 165.403 183.612 163.563C187.572 162.243 189.672 156.343 190.732 151.643C190.832 151.223 190.992 150.023 191.112 148.963C192.072 141.623 193.672 125.783 205.472 117.682C218.093 109.022 231.353 109.022 231.353 109.022L233.753 132.863C227.653 131.963 223.413 133.203 219.833 135.183C206.352 142.683 218.093 171.484 197.112 181.164C176.932 190.544 160.431 174.364 155.031 169.844Z" fill="#1677FF"/>
<path d="M80.7892 139.443L72.109 131.663C88.0494 113.862 83.8493 100.782 80.7892 91.262C80.1692 89.3419 79.5892 87.5219 79.2092 85.7819C77.8491 79.6217 77.5691 74.2616 77.9892 69.5815C71.869 61.9614 69.169 53.9812 68.989 53.4412C65.2689 42.1809 68.0689 31.2007 74.4891 20.9005C87.4694 0 110.97 0 110.97 0L118.81 20.9805C112.85 20.7405 93.3095 21.0405 87.3094 30.5007C79.7292 42.4209 84.7093 49.7811 85.0693 50.6211C86.5293 48.7211 88.0094 47.201 89.3294 46.021C98.9096 37.5208 107.23 36.3008 112.53 36.7808C118.49 37.3208 123.89 40.3209 127.75 45.241C131.97 50.6411 133.71 57.6613 132.37 64.0414C131.07 70.2615 126.93 75.5216 120.71 78.8617C109.85 84.7019 100.81 83.9018 94.7495 81.8818C94.7895 82.0218 94.8095 82.1818 94.8495 82.3218C95.0695 83.3218 95.5095 84.7218 96.0295 86.3419C99.5696 97.3021 106.15 114.703 80.7892 139.443ZM95.4895 64.3814C96.6496 65.2214 97.8696 65.9214 99.1296 66.4214C103.33 68.1015 107.91 67.5415 113.11 64.7414C116.17 63.1014 116.53 61.3413 116.65 60.7613C117.01 59.0213 116.41 56.8012 115.11 55.1412C113.97 53.6812 112.65 52.9212 111.07 52.7612C108.07 52.5011 104.01 54.4012 99.9496 58.0213C98.0096 59.7613 96.5296 61.9013 95.4895 64.3814Z" fill="#69B1FF"/>
<path d="M115.53 142.703L103.11 142.363C103.11 142.363 109.01 109.042 128.11 103.442C131.69 102.402 135.611 101.342 139.551 100.762C141.891 100.402 145.591 99.8622 147.411 99.1822C147.831 96.0421 146.511 92.042 145.031 87.5019C143.871 83.9818 142.671 80.3618 142.031 76.4017C140.791 68.6815 142.851 61.8614 147.831 57.1613C153.911 51.4611 163.731 49.6411 174.811 52.1611C181.132 53.6012 185.792 56.7012 189.892 59.4213C195.752 63.3214 199.172 65.3014 206.332 60.4813C214.992 54.6412 203.672 31.7807 197.652 18.5804L220.112 9.22021C223.132 15.8204 237.713 49.7811 228.093 69.1615C224.853 75.6817 219.272 80.0018 211.952 81.6218C196.032 85.1819 186.712 78.9817 179.912 74.4616C176.691 72.3216 173.871 70.6415 170.811 69.7615C149.551 63.7014 179.232 94.9821 165.331 109.042C156.991 117.463 136.611 119.683 135.291 120.003C122.17 123.163 115.53 142.703 115.53 142.703Z" fill="#012C51"/>
<path d="M77.9697 69.5815C77.5897 73.9816 77.4096 76.6017 78.5497 82.3218C84.0498 86.3619 96.0301 86.3619 96.0301 86.3619C95.51 84.7419 95.05 83.3418 94.85 82.3418C94.81 82.2018 94.79 82.0418 94.75 81.9018C82.5698 75.8217 77.9697 69.5815 77.9697 69.5815Z" fill="#FFFF00"/>
<path d="M53.0486 89.2815L32.3682 79.1413L42.6684 64.261L58.8887 75.0012L53.0486 89.2815Z" fill="#FFC107"/>
<path d="M22.5682 61.2014C12.008 59.7813 1.24777 50.8211 0.067749 49.8011L10.448 37.6208C13.588 40.2809 20.2482 44.741 24.7083 45.341L22.5682 61.2014Z" fill="#FB8C00"/>
<path d="M41.2083 34.5404L26.0079 29.5603C27.748 24.2402 28.208 18.5001 27.308 12.96L43.1083 10.4199C44.4083 18.4601 43.7483 26.8003 41.2083 34.5404Z" fill="#03A9F4"/>
<path d="M136.136 22.6504L151.767 19.2311L156.28 39.8637L140.65 43.283L136.136 22.6504Z" fill="#FB8C00"/>
<path d="M174.912 27.541L163.911 15.9208C169.672 10.4606 170.992 3.32048 170.992 3.24048L186.792 5.82053C186.592 7.08056 184.572 18.4008 174.912 27.541Z" fill="#FFC107"/>
<path d="M181.024 89.1643L194.998 84.7971L199.771 100.069L185.797 104.437L181.024 89.1643Z" fill="#FB8C00"/>
<path d="M185.091 218.064L169.191 216.184C169.871 210.524 165.651 203.584 164.491 202.044L177.291 192.444C178.251 193.704 186.591 205.244 185.091 218.064Z" fill="#F44336"/>
<path d="M230.733 197.784C224.753 196.884 218.632 196.524 212.592 196.744L212.052 180.744C219.072 180.504 226.173 180.904 233.113 181.964L230.733 197.784Z" fill="#FB8C00"/>
<path d="M209.22 219.809L220.462 208.423L235.932 223.698L224.69 235.083L209.22 219.809Z" fill="#FF0000"/>
<path d="M176.19 118.665L187.75 131.882L174.532 143.442L162.972 130.225L176.19 118.665Z" fill="#F44336"/>
</svg>
