<svg width="400" height="400" viewBox="0 0 400 400" fill="none" xmlns="http://www.w3.org/2000/svg">
<g opacity="0.05" clip-path="url(#clip0_65_729)">
<path d="M324.94 233.057L357.707 289.823C359.055 292.161 359.816 294.79 359.925 297.486C360.034 300.182 359.488 302.865 358.332 305.303C357.177 307.742 355.447 309.864 353.292 311.487C351.136 313.11 348.619 314.186 345.957 314.623L344.073 314.807L342.207 314.79L293.323 311.623L271.607 355.557C270.428 357.936 268.698 359.999 266.561 361.575C264.424 363.151 261.942 364.194 259.321 364.618C256.7 365.041 254.016 364.834 251.492 364.011C248.967 363.189 246.675 361.776 244.807 359.89L243.44 358.323L242.24 356.49L209.44 299.707C232.53 298.263 254.972 291.495 275.009 279.932C295.047 268.369 312.137 252.326 324.94 233.057Z" fill="white"/>
<path d="M190.51 299.707L157.743 356.507C156.415 358.808 154.557 360.759 152.323 362.197C150.09 363.635 147.545 364.519 144.9 364.775C142.256 365.031 139.589 364.652 137.12 363.669C134.652 362.686 132.454 361.127 130.71 359.124L129.443 357.457L128.377 355.557L106.643 311.64L57.7933 314.807C55.1024 314.98 52.4097 314.498 49.9457 313.403C47.4818 312.308 45.32 310.632 43.6456 308.518C41.9712 306.405 40.834 303.917 40.3314 301.268C39.8288 298.618 39.9759 295.887 40.7599 293.307L41.4266 291.524L42.2599 289.857L75.0599 233.04C87.8545 252.309 104.934 268.355 124.963 279.924C144.992 291.492 167.426 298.252 190.51 299.707Z" fill="white"/>
<path d="M200 33.3333L204 33.4C234.232 34.4371 262.879 47.176 283.899 68.9295C304.919 90.683 316.667 119.75 316.667 150L316.617 153.217L316.5 156.417L316.2 160.5L315.767 164.533L315.367 167.5C314.27 174.694 312.501 181.77 310.083 188.633L308.15 193.767L305.6 199.567C296.165 219.666 281.19 236.657 262.435 248.542C243.68 260.428 221.922 266.716 199.718 266.667C177.514 266.618 155.785 260.234 137.082 248.266C118.38 236.298 103.48 219.241 94.1335 199.1L91.9668 194.15L91.1002 191.933L89.7668 188.317L88.1835 183.417C87.618 181.519 87.1011 179.607 86.6335 177.683L85.6335 173.167L84.8168 168.65L84.4835 166.333L83.8335 160.95L83.4335 154.867L83.3335 150C83.333 119.75 95.0817 90.683 116.101 68.9295C137.121 47.176 165.768 34.4371 196 33.4L200 33.3333Z" fill="white"/>
</g>
<defs>
<clipPath id="clip0_65_729">
<rect width="400" height="400" fill="white"/>
</clipPath>
</defs>
</svg>
