<svg width="70" height="70" viewBox="0 0 70 70" fill="none" xmlns="http://www.w3.org/2000/svg">
<g clip-path="url(#clip0_152_13759)">
<path d="M8.75 35C8.75 38.4472 9.42898 41.8606 10.7482 45.0454C12.0673 48.2302 14.0009 51.124 16.4384 53.5616C18.876 55.9991 21.7698 57.9327 24.9546 59.2518C28.1394 60.571 31.5528 61.25 35 61.25C38.4472 61.25 41.8606 60.571 45.0454 59.2518C48.2302 57.9327 51.124 55.9991 53.5616 53.5616C55.9991 51.124 57.9327 48.2302 59.2518 45.0454C60.571 41.8606 61.25 38.4472 61.25 35C61.25 31.5528 60.571 28.1394 59.2518 24.9546C57.9327 21.7698 55.9991 18.876 53.5616 16.4384C51.124 14.0009 48.2302 12.0673 45.0454 10.7482C41.8606 9.42898 38.4472 8.75 35 8.75C31.5528 8.75 28.1394 9.42898 24.9546 10.7482C21.7698 12.0673 18.876 14.0009 16.4384 16.4384C14.0009 18.876 12.0673 21.7698 10.7482 24.9546C9.42898 28.1394 8.75 31.5528 8.75 35Z" stroke="#3686F7" stroke-width="4" stroke-linecap="round" stroke-linejoin="round"/>
<path d="M34.9947 20.4167L48.878 30.4792L43.7447 46.6667H26.2447L21.1113 30.4792L34.9947 20.4167Z" stroke="#3686F7" stroke-width="4" stroke-linecap="round" stroke-linejoin="round"/>
<path d="M34.9997 20.4167V8.75M43.7497 46.6667L51.0413 55.4167M48.883 30.4792L59.7913 26.25M26.4247 46.8125L18.958 55.4167M21.1163 30.4792L10.208 26.25" stroke="#3686F7" stroke-width="4" stroke-linecap="round" stroke-linejoin="round"/>
</g>
<defs>
<clipPath id="clip0_152_13759">
<rect width="70" height="70" fill="white"/>
</clipPath>
</defs>
</svg>
