<svg width="120" height="120" viewBox="0 0 120 120" fill="none" xmlns="http://www.w3.org/2000/svg">
<g clip-path="url(#clip0_134_2212)">
<path d="M15 60C15 65.9095 16.164 71.7611 18.4254 77.2208C20.6869 82.6804 24.0016 87.6412 28.1802 91.8198C32.3588 95.9984 37.3196 99.3131 42.7792 101.575C48.2389 103.836 54.0905 105 60 105C65.9095 105 71.7611 103.836 77.2208 101.575C82.6804 99.3131 87.6412 95.9984 91.8198 91.8198C95.9984 87.6412 99.3131 82.6804 101.575 77.2208C103.836 71.7611 105 65.9095 105 60C105 54.0905 103.836 48.2389 101.575 42.7792C99.3131 37.3196 95.9984 32.3588 91.8198 28.1802C87.6412 24.0016 82.6804 20.6869 77.2208 18.4254C71.7611 16.164 65.9095 15 60 15C54.0905 15 48.2389 16.164 42.7792 18.4254C37.3196 20.6869 32.3588 24.0016 28.1802 28.1802C24.0016 32.3588 20.6869 37.3196 18.4254 42.7792C16.164 48.2389 15 54.0905 15 60Z" stroke="#F2F2F2" stroke-width="6" stroke-linecap="round" stroke-linejoin="round"/>
<path d="M28.2422 28.252L91.7422 91.752" stroke="#F2F2F2" stroke-width="6" stroke-linecap="round" stroke-linejoin="round"/>
<path d="M28.2422 91.752L91.7422 28.252" stroke="#F2F2F2" stroke-width="6" stroke-linecap="round" stroke-linejoin="round"/>
<path d="M60 15C60 26.9347 64.7411 38.3807 73.1802 46.8198C81.6193 55.2589 93.0653 60 105 60" stroke="#F2F2F2" stroke-width="6" stroke-linecap="round" stroke-linejoin="round"/>
<path d="M15 60C26.9347 60 38.3807 64.7411 46.8198 73.1802C55.2589 81.6193 60 93.0653 60 105" stroke="#F2F2F2" stroke-width="6" stroke-linecap="round" stroke-linejoin="round"/>
</g>
<defs>
<clipPath id="clip0_134_2212">
<rect width="120" height="120" fill="white"/>
</clipPath>
</defs>
</svg>
