<svg width="76" height="30" viewBox="0 0 76 30" fill="none" xmlns="http://www.w3.org/2000/svg">
<path d="M71.5288 17.5919L73.5118 18.9139C72.8682 19.862 71.3288 21.4884 68.6673 21.4884C65.3623 21.4884 62.9009 18.9313 62.9009 15.6785C62.9009 12.2169 65.3884 9.86853 68.389 9.86853C71.4071 9.86853 72.8856 12.269 73.364 13.565L73.6249 14.226L65.8493 17.4441C66.4408 18.6095 67.3627 19.201 68.6673 19.201C69.972 19.201 70.8765 18.5573 71.5288 17.5919ZM65.4319 15.4958L70.6243 13.3388C70.3373 12.6169 69.4849 12.1038 68.4673 12.1038C67.1714 12.1038 65.371 13.2519 65.4319 15.4958Z" fill="#FF302F"/>
<path d="M59.1523 3.94543H61.6572V20.9578H59.1523V3.94543Z" fill="#20B15A"/>
<path d="M55.2037 10.3207H57.6216V20.6534C57.6216 24.9412 55.0906 26.7068 52.0987 26.7068C49.2807 26.7068 47.5847 24.8108 46.9497 23.2713L49.1676 22.3494C49.5677 23.2974 50.5331 24.4194 52.0987 24.4194C54.0208 24.4194 55.2037 23.2278 55.2037 21.0013V20.1663H55.1167C54.5427 20.8621 53.4468 21.4883 52.0552 21.4883C49.1502 21.4883 46.4888 18.9573 46.4888 15.6958C46.4888 12.4168 49.1502 9.85974 52.0552 9.85974C53.4381 9.85974 54.5427 10.4773 55.1167 11.1557H55.2037V10.3207ZM55.3776 15.6958C55.3776 13.6432 54.0121 12.1472 52.2726 12.1472C50.5157 12.1472 49.0371 13.6432 49.0371 15.6958C49.0371 17.7223 50.5157 19.1922 52.2726 19.1922C54.0121 19.2009 55.3776 17.7223 55.3776 15.6958Z" fill="#3686F7"/>
<path d="M32.738 15.6523C32.738 19.0008 30.1288 21.4622 26.9281 21.4622C23.7274 21.4622 21.1182 18.9921 21.1182 15.6523C21.1182 12.2863 23.7274 9.83362 26.9281 9.83362C30.1288 9.83362 32.738 12.2863 32.738 15.6523ZM30.1984 15.6523C30.1984 13.5649 28.685 12.1298 26.9281 12.1298C25.1712 12.1298 23.6578 13.5649 23.6578 15.6523C23.6578 17.7223 25.1712 19.1747 26.9281 19.1747C28.685 19.1747 30.1984 17.7223 30.1984 15.6523Z" fill="#FF302F"/>
<path d="M45.4275 15.6785C45.4275 19.027 42.8182 21.4884 39.6176 21.4884C36.4169 21.4884 33.8076 19.027 33.8076 15.6785C33.8076 12.3125 36.4169 9.86853 39.6176 9.86853C42.8182 9.86853 45.4275 12.3038 45.4275 15.6785ZM42.8791 15.6785C42.8791 13.5911 41.3658 12.156 39.6089 12.156C37.852 12.156 36.3386 13.5911 36.3386 15.6785C36.3386 17.7485 37.852 19.201 39.6089 19.201C41.3745 19.201 42.8791 17.7398 42.8791 15.6785Z" fill="#FFBA40"/>
<path d="M11.5683 18.9399C7.92401 18.9399 5.07123 16.0002 5.07123 12.3559C5.07123 8.71164 7.92401 5.77188 11.5683 5.77188C13.5339 5.77188 14.969 6.54596 16.0301 7.53748L17.7783 5.78928C16.2997 4.37158 14.3254 3.29309 11.5683 3.29309C6.5759 3.29309 2.375 7.36353 2.375 12.3559C2.375 17.3483 6.5759 21.4187 11.5683 21.4187C14.2645 21.4187 16.2997 20.5316 17.8914 18.879C19.5265 17.2439 20.0309 14.9478 20.0309 13.0865C20.0309 12.5038 19.9614 11.9036 19.8831 11.4601H11.5683V13.878H17.4913C17.3173 15.3913 16.839 16.4263 16.1345 17.1308C15.2821 17.9919 13.934 18.9399 11.5683 18.9399Z" fill="#3686F7"/>
</svg>
