<svg xmlns="http://www.w3.org/2000/svg" viewBox="0 0 5000 2627.5"><defs><style>.cls-1{fill:#8d9093;}</style></defs><title>Asset 2lines</title><g id="Layer_2" data-name="Layer 2"><g id="Layer_1-2" data-name="Layer 1"><path class="cls-1" d="M4737.62,2627.5h-1.74c-69.6-88.16-137.85-178.39-205.88-268.34-224.5-296.84-446.53-590.43-706.57-794.8C3223.87,1093.14,2421.89,1096.45,921,2627.5h-1.89C2421.31,1094.8,3224.07,1091.58,3824.31,1563.33c260.16,204.47,482.26,498.13,706.81,795.05,68.22,90.21,136.68,180.72,206.5,269.12m59.13,0H4795c-88.81-103.09-175.84-210.12-262.77-317-241.27-296.75-481.77-592.54-757.43-800.22-646.49-487-1486.82-489.19-2985.19,1117.26h-1.85C2287.32,1019.4,3128.43,1021.64,3775.6,1509.2,4051.41,1717,4292,2012.83,4533.27,2309.64,4620.43,2416.84,4707.69,2524.16,4796.75,2627.5Zm69.62,0h-1.86c-109.36-116.71-216.71-240.1-324.29-363.76-259.45-298.25-520.32-598.11-814.2-809.68C3030.56,953.41,2149.77,947.55,664.14,2627.5h-1.83C2149.12,945.91,3030.68,951.84,3726.84,1453c294,211.65,554.93,511.58,814.44,809.89C4649.13,2386.85,4756.74,2510.55,4866.37,2627.5Zm80.23,0h-1.93c-130.86-128.74-259.89-268-389.83-408.18-279.59-301.69-563.44-608-878.84-824.18C2929.87,883.7,2006.8,876.82,545,2627.5H543.2C2006.11,875.18,2930,882.13,3676.8,1394.06c315.51,216.27,599.42,522.62,879.07,824.37C4686.11,2359,4815.44,2498.52,4946.6,2627.5Zm53.4-34.32V2595c-140.83-130.26-281.09-272.91-423.12-417.37-302.28-307.45-612.62-623.11-953.7-844.85C2825.16,814,1858.5,809.8,432.33,2627.5h-1.74C1857.76,808.17,2825.22,812.47,3624,1331.71c341.22,221.81,651.61,537.53,953.93,845C4719.58,2320.86,4859.51,2463.18,5000,2593.18Zm0-86.36v1.82c-129.46-116-259.95-241.65-392.62-369.36-328.13-315.87-669.57-644.55-1041.6-872.86C2715.23,744.47,1704.47,747.51,326.47,2627.5h-1.69C1703.69,745.89,2715.25,742.9,3566.52,1265.29c372.15,228.38,713.65,557.12,1041.84,873C4740.69,2265.72,4870.86,2391,5000,2506.82Zm0-86.6v1.8c-115.4-100.38-232.73-207.69-352.36-317.13-357.82-327.3-736.33-673.52-1145.86-909.49C2598.76,675.08,1544.56,691,227.71,2627.5h-1.65c1317.67-1938.09,2372.67-1954,3276.43-1433.25,409.67,236.06,788.23,582.33,1146.1,909.68C4767.9,2213.06,4884.9,2320.08,5000,2420.22Zm0-86.81v1.78c-98.11-82.91-198.34-170.39-300.71-259.73-391.9-342-815.11-711.39-1270.28-956.1-954.67-513.24-2050.12-478-3292.64,1508.14h-1.61C1378,639.75,2474.27,604.56,3429.68,1118.2,3885,1363,4308.26,1732.39,4700.21,2074.47,4802.26,2163.53,4902.18,2250.74,5000,2333.41Zm0-87v1.76c-76.83-63.15-155.38-128.85-235.56-195.91C4333.74,1692,3856,1292.47,3345.21,1038.15,2340.68,538,1208,599.86,53.05,2627.5H51.47C1207.11,598.3,2340.56,536.46,3345.85,1037c510.94,254.38,988.73,654,1419.49,1014.28C4845.21,2118.05,4923.45,2183.5,5000,2246.41Zm0-87.18V2161q-75.69-60.57-154.06-123.82c-474.12-381.9-1019-820.8-1597.81-1085.26C2203.77,474.71,1048.93,565.83,0,2584.78v-3C1049.08,564.21,2204.11,473.39,3248.72,950.68c579,264.54,1123.92,703.5,1598.11,1085.45Q4924.71,2098.86,5000,2159.23Zm0-87.34v1.72l-52.2-40.71c-521.14-406.63-1150-897.25-1812.2-1171.88C2074.6,421,927.7,535.88,0,2439v-3.13C927.92,534.28,2075,419.72,3136.15,859.79c662.41,274.7,1291.3,765.39,1812.52,1172.06Q4974.51,2052,5000,2071.89Zm0-87.49v1.7c-557.52-424-1262.28-948.07-1994.36-1219.76C1937.92,370.07,812,511,0,2282.63v-3.27C812.35,509.42,1938.29,368.78,3006.14,765.09,3738,1036.73,4442.55,1560.49,5000,1984.4Zm0-87.64v1.69C4412,1462,3641.87,925.15,2856.64,669,1794.51,322.56,704.66,490,0,2113.71v-3.44C705.07,488.35,1794.92,321.28,2857.07,667.75,3642.15,923.83,4412,1460.33,5000,1896.76Zm0-87.75v1.67C4319.32,1317.1,3371.81,703,2452.46,513.29,1492.11,315.14,562.55,580.36,0,1929.91v-3.55C563,578.67,1492.47,313.85,2452.74,512,3372,701.67,4319.27,1315.45,5000,1809Zm0-87.88v1.66C4306.29,1231,3313.15,627.67,2366.92,445.08,1410.8,260.58,502.66,505.88,0,1730.37v-3.57C503.2,504.2,1411.22,259.3,2367.2,443.77,3313.29,626.34,4306.22,1229.41,5000,1721.13Zm0-88v1.65C4295.13,1146,3259.46,555.14,2288.36,378.13c-378.61-69-747.39-75.11-1082.89,12.29S567.8,658.7,322.3,963.66C199.77,1115.86,91.37,1299,0,1516.8v-3.54c91.15-216.6,199.17-398.84,321.2-550.43,245.7-305.2,548.16-486.23,883.91-573.7s704.7-81.36,1083.5-12.31C3259.58,553.8,4295,1144.38,5000,1633.14Zm0-88.11v1.63C4248.29,1036.42,3097.15,424.2,2061,288.43c-355.41-46.57-697.29-37.08-1004.86,51.82s-580.77,257.17-799,528.2C159.88,989.28,73.55,1130.55,0,1294.29v-3.37c73.32-162.65,159.28-303.07,256.06-423.29C474.43,596.37,747.92,427.94,1055.72,339s649.83-98.46,1005.43-51.86C3097.22,422.86,4248.14,1034.81,5000,1545Zm0-88.22v1.62C4453.73,1095.26,3685,685.28,2903.1,433.77,2318.87,245.84,1727.34,146.39,1215.87,221.08S273.19,544.51,9.24,1053c-3.1,6-6.18,12-9.24,18.07v-3q4-7.85,8-15.62c264.18-508.92,695.87-757.9,1207.66-832.63s1103.44,24.76,1687.86,212.75C3685.18,683.94,4453.69,1093.71,5000,1456.81Zm0-88.29v1.6c-583.91-380.43-1434.49-806.74-2282.95-1047C2139.38,159.56,1562.72,82.25,1072,164.42,619.39,240.19,239.87,451.62,0,856.15v-2.68C240.16,449.87,619.51,238.81,1071.74,163.1c491-82.2,1067.84-4.87,1645.7,158.75C3565.67,562,4416,988.15,5000,1368.52Zm0-88.39v1.6c-622.69-397.8-1562.07-839.58-2477.85-1065C1954,76.8,1394.93,20.18,926.32,109,541.55,182,217.79,353,0,656.55V654.2C218,351.36,541.6,180.6,926.06,107.71,1394.88,18.83,1954.14,75.46,2522.5,215.39,3438,440.8,4377.19,882.39,5000,1280.13Zm0-88.46v1.59C4338.11,778.43,3304,322.68,2321.86,115.34,1765.65-2.08,1226.14-39.82,780.44,54.68,463.67,121.84,194.31,255.85,0,475.51v-2.07c194.43-219.19,463.65-353,780.15-420.07,445.9-94.54,985.61-56.79,1542,60.67C3304.07,321.33,4337.94,776.89,5000,1191.67ZM1056.35,2627.5C2551.76,1171.37,3318.3,1161.69,3873.91,1616c246.56,201.6,451.56,494.52,660.33,792.83,51.08,73,102.4,146.3,154.59,218.68h-1.68c-52-72.14-103.15-145.19-154.06-217.94C4324.37,2111.33,4119.43,1818.49,3873,1617,3318.07,1163.25,2552.3,1173,1058.29,2627.5Z"/></g></g></svg>