<svg width="600" height="600" viewBox="0 0 600 600" fill="none" xmlns="http://www.w3.org/2000/svg">
<circle cx="300" cy="300" r="300" fill="#BAE0FF"/>
<circle cx="300" cy="300" r="200" fill="#4096FF"/>
<path d="M372.5 300C372.5 302.643 372.359 305.253 372.083 307.822C370.967 318.235 367.646 327.986 362.595 336.604C352.599 353.661 335.832 366.264 315.995 370.73C310.851 371.888 305.499 372.5 300 372.5C294.501 372.5 289.149 371.888 284.005 370.73C264.168 366.264 247.401 353.661 237.405 336.604C232.297 327.888 228.958 318.013 227.88 307.466C227.629 305.012 227.5 302.522 227.5 300C227.5 281.611 234.343 264.827 245.624 252.045C252.467 244.293 260.94 238.016 270.503 233.751C279.511 229.734 289.491 227.5 300 227.5C310.509 227.5 320.489 229.734 329.497 233.751C339.227 238.09 347.828 244.512 354.731 252.451C365.801 265.181 372.5 281.805 372.5 300Z" stroke="#012C51" stroke-width="5"/>
</svg>
