<svg width="150" height="150" viewBox="0 0 150 150" fill="none" xmlns="http://www.w3.org/2000/svg">
<g clip-path="url(#clip0_49_1475)">
<path d="M25 81.25C36.1443 82.5744 46.519 87.6096 54.4547 95.5453C62.3904 103.481 67.4256 113.856 68.75 125C74.2745 121.815 78.8956 117.274 82.1764 111.806C85.4573 106.338 87.2895 100.123 87.5 93.75C97.9944 90.0582 107.159 83.3375 113.833 74.4376C120.508 65.5377 124.394 54.8584 125 43.75C125 38.7772 123.025 34.0081 119.508 30.4917C115.992 26.9754 111.223 25 106.25 25C95.1416 25.6057 84.4623 29.4917 75.5624 36.1666C66.6625 42.8415 59.9418 52.0056 56.25 62.5C49.8766 62.7105 43.6622 64.5427 38.1941 67.8236C32.7261 71.1044 28.1849 75.7255 25 81.25Z" stroke="#012C51" stroke-width="3" stroke-linecap="round" stroke-linejoin="round"/>
<path d="M43.7469 87.5C37.2421 91.1723 31.9822 96.7036 28.6416 103.385C25.301 110.066 24.0319 117.593 24.9969 125C32.4041 125.965 39.9308 124.696 46.612 121.355C53.2933 118.015 58.8246 112.755 62.4969 106.25" stroke="#012C51" stroke-width="3" stroke-linecap="round" stroke-linejoin="round"/>
<path d="M87.5 56.25C87.5 57.9076 88.1585 59.4973 89.3306 60.6694C90.5027 61.8415 92.0924 62.5 93.75 62.5C95.4076 62.5 96.9973 61.8415 98.1694 60.6694C99.3415 59.4973 100 57.9076 100 56.25C100 54.5924 99.3415 53.0027 98.1694 51.8306C96.9973 50.6585 95.4076 50 93.75 50C92.0924 50 90.5027 50.6585 89.3306 51.8306C88.1585 53.0027 87.5 54.5924 87.5 56.25Z" stroke="#012C51" stroke-width="3" stroke-linecap="round" stroke-linejoin="round"/>
</g>
<defs>
<clipPath id="clip0_49_1475">
<rect width="150" height="150" fill="white"/>
</clipPath>
</defs>
</svg>
