<svg width="24" height="24" viewBox="0 0 24 24" fill="none" xmlns="http://www.w3.org/2000/svg">
<path d="M22 8.16192V8.23492C22 9.09492 22 9.52592 21.793 9.87792C21.586 10.2299 21.209 10.4389 20.457 10.8579L19.664 11.2979C20.21 9.44992 20.393 7.46392 20.46 5.76592L20.47 5.54492L20.472 5.49292C21.123 5.71892 21.489 5.88792 21.717 6.20392C22 6.59692 22 7.11892 22 8.16192ZM2 8.16192V8.23492C2 9.09492 2 9.52592 2.207 9.87792C2.414 10.2299 2.791 10.4389 3.543 10.8579L4.337 11.2979C3.79 9.44992 3.607 7.46392 3.54 5.76592L3.53 5.54492L3.529 5.49292C2.877 5.71892 2.511 5.88792 2.283 6.20392C2 6.59692 2 7.11992 2 8.16192Z" fill="white"/>
<path fill-rule="evenodd" clip-rule="evenodd" d="M12 1.99999C13.784 1.99999 15.253 2.15699 16.377 2.34699C17.516 2.53899 18.085 2.63499 18.561 3.22099C19.037 3.80699 19.011 4.43999 18.961 5.70599C18.789 10.055 17.851 15.486 12.75 15.966V19.5H14.18C14.4111 19.5001 14.635 19.5803 14.8136 19.7269C14.9923 19.8735 15.1147 20.0774 15.16 20.304L15.35 21.25H18C18.1989 21.25 18.3897 21.329 18.5303 21.4697C18.671 21.6103 18.75 21.8011 18.75 22C18.75 22.1989 18.671 22.3897 18.5303 22.5303C18.3897 22.671 18.1989 22.75 18 22.75H5.99997C5.80106 22.75 5.61029 22.671 5.46964 22.5303C5.32899 22.3897 5.24997 22.1989 5.24997 22C5.24997 21.8011 5.32899 21.6103 5.46964 21.4697C5.61029 21.329 5.80106 21.25 5.99997 21.25H8.64997L8.83997 20.304C8.88527 20.0774 9.00765 19.8735 9.18631 19.7269C9.36497 19.5803 9.58888 19.5001 9.81997 19.5H11.25V15.966C6.14997 15.486 5.21197 10.054 5.03997 5.70599C4.98897 4.43999 4.96397 3.80599 5.43997 3.22099C5.91497 2.63499 6.48397 2.53899 7.62297 2.34699C9.06979 2.10987 10.5339 1.9938 12 1.99999ZM12.952 6.19899L12.854 6.02299C12.474 5.33999 12.284 4.99999 12 4.99999C11.716 4.99999 11.526 5.33999 11.146 6.02299L11.048 6.19899C10.94 6.39299 10.886 6.48899 10.802 6.55299C10.717 6.61699 10.612 6.64099 10.402 6.68799L10.212 6.73199C9.47397 6.89899 9.10497 6.98199 9.01697 7.26399C8.92897 7.54699 9.18097 7.84099 9.68397 8.42899L9.81397 8.58099C9.95697 8.74799 10.029 8.83099 10.061 8.93499C10.093 9.03899 10.082 9.14999 10.061 9.37299L10.041 9.57599C9.96497 10.361 9.92697 10.754 10.156 10.928C10.386 11.102 10.732 10.943 11.423 10.625L11.601 10.543C11.798 10.453 11.896 10.408 12 10.408C12.104 10.408 12.202 10.453 12.399 10.543L12.577 10.625C13.268 10.944 13.614 11.102 13.844 10.928C14.074 10.754 14.035 10.361 13.959 9.57599L13.939 9.37299C13.918 9.14999 13.907 9.03899 13.939 8.93499C13.971 8.83199 14.043 8.74799 14.186 8.58099L14.316 8.42899C14.819 7.84099 15.071 7.54699 14.983 7.26399C14.895 6.98199 14.526 6.89899 13.788 6.73199L13.598 6.68799C13.388 6.64099 13.283 6.61799 13.198 6.55299C13.114 6.48899 13.06 6.39299 12.952 6.19899Z" fill="white"/>
</svg>
