<svg width="150" height="150" viewBox="0 0 150 150" fill="none" xmlns="http://www.w3.org/2000/svg">
<g clip-path="url(#clip0_49_1482)">
<path d="M62.5 81.25C62.5 84.5652 63.817 87.7446 66.1612 90.0888C68.5054 92.433 71.6848 93.75 75 93.75C78.3152 93.75 81.4946 92.433 83.8388 90.0888C86.183 87.7446 87.5 84.5652 87.5 81.25C87.5 77.9348 86.183 74.7554 83.8388 72.4112C81.4946 70.067 78.3152 68.75 75 68.75C71.6848 68.75 68.5054 70.067 66.1612 72.4112C63.817 74.7554 62.5 77.9348 62.5 81.25Z" stroke="#012C51" stroke-width="3" stroke-linecap="round" stroke-linejoin="round"/>
<path d="M64.8701 72.1875L52.0576 59.375" stroke="#012C51" stroke-width="3" stroke-linecap="round" stroke-linejoin="round"/>
<path d="M40 124.998C30.8634 117.736 24.212 107.812 20.9674 96.6008C17.7228 85.3898 18.0458 73.4472 21.8915 62.428C25.7373 51.4087 32.9154 41.8586 42.4312 35.101C51.9469 28.3435 63.329 24.7131 75 24.7131C86.6711 24.7131 98.0531 28.3435 107.569 35.101C117.085 41.8586 124.263 51.4087 128.108 62.428C131.954 73.4472 132.277 85.3898 129.033 96.6008C125.788 107.812 119.137 117.736 110 124.998H40Z" stroke="#012C51" stroke-width="3" stroke-linecap="round" stroke-linejoin="round"/>
</g>
<defs>
<clipPath id="clip0_49_1482">
<rect width="150" height="150" fill="white"/>
</clipPath>
</defs>
</svg>
