<svg width="328" height="240" viewBox="0 0 328 240" fill="none" xmlns="http://www.w3.org/2000/svg">
<path d="M46.9787 96.1702L25.7021 94.4681L35.0638 114.043L64 100.426L55.4893 80.8511L46.9787 96.1702Z" fill="#1677FF"/>
<path d="M209.532 98.7234H121.872L104.851 153.191C103.716 159.716 105.532 173.447 121.872 176.17H158.468C164.709 175.603 179.745 170.213 189.957 153.191L209.532 98.7234Z" fill="#0958D9"/>
<path d="M212.936 98.7234V216.17C216.908 217.021 225.021 221.277 225.702 231.489C226.553 226.383 230.298 216.17 238.468 216.17V98.7234H212.936Z" fill="#FB8C00"/>
<path d="M172.085 63.8298L158.468 74.8936L146.553 63.8298L134.638 74.8936L121.872 63.8298V39.6383L112.51 45.9574V91.9149H121.872H180.596V45.9574L172.085 40.2128V63.8298Z" fill="#FB8C00"/>
<path d="M158.468 74.8936L172.085 63.8298V40.2128V32.3404H160.422H132.684H121.872V39.6383V63.8298L134.638 74.8936L146.553 63.8298L158.468 74.8936Z" fill="white"/>
<path d="M160.422 32.3404L146.553 22.9787L132.684 32.3404H160.422Z" fill="#FB8C00"/>
<path d="M59.7446 18.7234L10.3829 0L28.2553 24.6809L59.7446 18.7234Z" fill="#BAE0FF"/>
<path d="M225.702 231.489C225.021 221.277 216.908 217.021 212.936 216.17H206.979C203.574 203.688 191.319 184.511 169.532 207.66C160.454 206.809 142.298 211.064 142.298 234.894L293.787 234.043V231.489C292.652 232.34 287.489 230.468 275.915 216.17C264.34 201.872 252.936 210.213 248.681 216.17H238.468C230.298 216.17 226.553 226.383 225.702 231.489Z" fill="#008000"/>
<path d="M313.362 231.489C304.511 205.617 296.624 220.709 293.787 231.489V234.043V236.596H309.957V240H327.83C323.745 220.255 316.482 226.099 313.362 231.489Z" fill="#FB8C00"/>
<path d="M325.276 28.0851C323.234 8.34043 306.837 2.83688 298.893 2.55319H185.702C202.723 5.95745 208.681 23.8298 209.532 32.3404V98.7234H212.936H238.468H325.276V28.0851Z" fill="#002C8C"/>
<path d="M180.596 45.9574V91.9149H121.872V98.7234H209.532V32.3404C208.681 23.8298 202.723 5.95745 185.702 2.55319H150.808C129.021 5.95745 122.44 23.8298 121.872 32.3404H132.684L146.553 22.9787L160.422 32.3404H172.085V40.2128L180.596 45.9574Z" fill="#91CAFF"/>
<path d="M10.3829 0L0.170166 28.0851L46.9787 45.9574L59.7446 18.7234L28.2553 24.6809L10.3829 0Z" fill="#1677FF"/>
<path d="M25.7021 94.4681L46.9787 96.1702L55.4893 80.8511L25.7021 94.4681Z" fill="#BAE0FF"/>
</svg>
